Patient5_TMGait_0pt45_1_right_10_EMG.mot
version=1
nRows=22
nColumns=33
inDegrees=no
endheader
time	1LAddLong	2LGlutMax	3LGlutMed	4LIliopsoas	5LSemiMemb	6LBicFemLong	7LRecFem	8LTensFascLat	9LVastMed	10LVasLat	11LGasMed	12lGasLat	13LTibAnt	14LPeroneusLong	15LSol	16LTibPost	17RAddLong	18RGlutMax	19RGlutMed	20RIliopsoas	21RSemiMemb	22RBicFemLong	23RRecFem	24RTensFascLat	25RVastMed	26RVasLat	27RGasMed	28RGasLat	29RTibAnt	30RPeroneusLong	31RSol	32RTibPost
17.52	-0.013733	0.017395	-0.086823	-0.014648	0.31113	-0.034637	0.010376	-0.11398	-0.000916	0.032196	-0.011902	0.090332	-0.005951	-0.008698	-0.018005	-0.20279	-0.007629	-0.001984	-0.002594	0.05249	0.11963	0.000458	0.001984	-0.000916	-0.038452	-0.019226	-0.011597	0.000916	-0.009613	-0.001831	-0.041962	-0.005951
17.521	-0.006561	0.018463	0.13443	0.014496	0.063629	-0.028076	0.009918	0.13153	-0.048065	0.042725	0.005951	0.046234	-0.002441	0.005493	-0.011597	-0.023041	-0.000305	-0.00061	-0.034637	0.016937	0.10529	0.005951	-0.00061	0.074158	-0.050354	-0.007935	-0.011597	-0.005798	-0.012512	-0.001984	-0.049133	-0.012207
17.522	-0.018005	0.034027	0.15366	0.014954	-0.27252	-0.007629	0.011597	0.15213	-0.066376	0.045624	0.003815	-0.03006	-0.004883	0.022736	0.001678	-0.13657	0.00061	0.000153	-0.038452	-0.058746	0.089569	0.010071	-0.001984	0.08316	-0.06546	-0.003357	-0.010223	-0.006561	-0.015106	-0.010681	-0.04364	-0.007935
17.523	0.001526	0.028687	0.092316	0.010223	-0.47424	-0.001678	0.018921	0.068054	-0.09491	0.057831	0.020142	-0.041656	-0.007629	0.050354	-0.000153	-0.064087	0.006409	-0.000916	0.043488	-0.025024	0.10422	-0.004272	0.001984	0.039063	-0.062408	-0.009766	-0.010071	-0.00946	-0.012512	-0.015869	-0.032196	-0.009308
17.524	-0.018005	0.022583	0.009613	0.039215	-0.2948	-0.003204	0.01358	0	-0.097198	0.061493	0.020447	-0.002899	-0.010834	0.05661	0.002441	-0.11978	0.00412	-0.003662	0.054474	-0.026093	0.074768	-0.003357	-0.000458	-0.04776	-0.057983	-0.016632	-0.007019	-0.005646	-0.009003	-0.011597	-0.0354	-0.004272
17.525	-0.02182	0.019989	-0.062408	0.031433	-0.042877	-0.005188	0.00473	-0.17242	-0.08606	0.033417	0.009308	0.012665	-0.000763	0.033417	-0.009155	0.10513	0.004578	-0.000153	-0.018616	-0.018921	0.052032	-0.001984	-0.002441	-0.11871	-0.061798	-0.014648	-0.011139	-0.014343	-0.009308	-0.009613	-0.029144	0.00061
17.526	-0.02182	0.026093	-0.12649	0.011749	0.075684	-0.028229	0.005035	-0.29846	-0.053101	0.0354	-0.0177	0.058289	-0.001526	-0.005951	-0.018921	0.031586	0.000153	-0.001984	0.035095	-0.042267	0.045776	-0.009155	-0.002594	-0.20264	-0.05722	-0.012665	-0.004883	-0.008087	-0.009003	-0.002136	-0.027771	0.001831
17.527	-0.035858	0.023956	-0.18494	0.00412	0.059967	-0.010376	-0.002594	-0.36377	-0.035248	0.039978	-0.039368	0.08255	-0.004578	0.009155	-0.013428	0.022583	-0.004578	-0.001068	0.02655	-0.030365	0.042877	-0.011444	-0.003815	-0.31479	-0.055847	-0.0177	-0.008392	0.002747	-0.003052	-0.015869	-0.003357	0.001526
17.528	-0.05722	0.013428	-0.18662	-0.012054	0.003204	0.003662	-0.02243	-0.38727	-0.031128	0.034485	-0.018005	0.1152	-0.007324	0.026855	0.007935	0.089417	0	-0.005188	0.054932	-0.023193	0.014038	-0.005341	-0.000916	-0.39536	-0.048828	-0.01709	-0.005493	-0.00351	-0.011597	-0.012817	0.02182	-0.001526
17.529	-0.082245	-0.002899	-0.004578	0.014801	-0.047913	0.012207	-0.010834	-0.20218	-0.027466	0.005493	0.026855	0.10437	-0.005493	0.017853	0.009918	-0.099335	-0.001373	-0.001221	0.034332	-0.057373	0.011749	-0.00351	-0.002136	-0.47119	-0.050812	-0.014191	-0.000305	-0.001831	-0.016327	-0.016937	0.005951	-0.006409
17.53	-0.093231	-0.013123	0.095215	0.021515	-0.13855	0.016174	0.002899	-0.00885	0.004883	-0.055237	0.026855	-0.053253	-0.007782	0.01358	-0.036621	0.059662	0.001984	0.001831	0.009766	0.009918	0.027161	-0.012512	-0.001984	-0.45105	-0.048065	-0.014954	-0.002747	0.001831	-0.013733	-0.016327	-0.006409	-0.013123
17.531	-0.058289	-0.019073	0.14221	0.013123	-0.17288	0.055237	0.006714	0.27481	0.050812	-0.10452	0.001831	-0.11673	-0.012665	0.006256	-0.11169	-0.095978	-0.001831	-0.001526	-0.009918	0.097046	0.041962	-0.000916	-0.003052	-0.37521	-0.0383	-0.015717	-0.003967	0.003662	-0.014191	-0.010529	-0.014648	-0.021973
17.532	-0.0383	-0.015259	0.14465	0.017853	-0.11368	0.079498	0.005951	0.11337	0.063324	-0.077209	-0.012665	-0.056915	-0.007477	-0.018311	-0.09552	-0.11597	-0.006409	-0.003052	0.004425	0.10895	0.055389	0.001373	0.001678	-0.21469	-0.03952	-0.00946	-0.002747	-0.007782	-0.01236	0.001068	-0.015564	-0.02594
17.533	-0.037994	-0.012817	0.060577	0.028076	-0.057678	0.079803	0.005341	-0.055389	0.066376	-0.055084	-0.045471	-0.036774	-0.01236	-0.004578	0.019684	-0.090485	-0.007935	-0.003052	-0.034637	0.041046	0.052643	0.004883	-0.00885	0.059204	-0.042725	-0.014343	-0.001373	-0.002136	-0.010223	-0.011292	-0.018005	-0.015564
17.534	-0.035553	-0.01236	0.012207	0.015259	-0.067749	0.056305	0.005951	0.082855	0.057983	-0.036621	-0.028381	-0.0383	-0.004883	-0.015106	0.029755	-0.095367	-0.007019	-0.00061	-0.050964	0.056763	0.046082	0.009155	-0.002899	0.30243	-0.038605	-0.010223	0.002136	0.006866	-0.011749	-0.014496	-0.003204	-0.020142
17.535	-0.026703	-0.018921	-0.023193	-0.002747	-0.17761	0.079956	0.00946	0.10162	0.079956	-0.029755	0.009003	-0.003815	-0.011139	-0.017853	0.014038	0.11856	-0.01709	-0.000305	-0.062866	0.04715	0.0354	0.009308	-0.002594	0.36255	-0.033417	-0.01709	-0.002136	0.007019	-0.010834	-0.009613	0.011139	-0.025482
17.536	-0.015259	-0.018768	-0.025482	-0.014191	-0.072327	0.080566	0.010071	0.096741	0.08606	-0.007935	0	0.007629	-0.016632	-0.015869	0.048676	0.039215	-0.017548	0.000458	-0.024261	0.088043	0.045471	0.003052	-0.001831	0.3447	-0.033264	-0.018768	-0.003967	0.003662	-0.011749	0.001373	0.00473	-0.023651
17.537	-0.016479	-0.027313	-0.007172	-0.10178	-0.007782	0.077209	0.005798	-0.012512	0.075226	0.004425	0.002594	-0.011749	-0.021667	-0.006561	0.098419	0.03067	-0.089111	0.003204	0.000458	-0.039825	0.016479	0.004883	-0.003967	0.26581	-0.037231	-0.008392	-0.003967	0.002136	-0.015869	-0.001068	-0.000305	-0.02121
17.538	0.002747	-0.022736	0.000305	-0.1654	-0.000153	0.046234	-0.006409	-0.11139	0.059662	0.024109	0.019836	-0.011292	-0.020294	0.014191	0.030518	-0.050201	-0.05127	0.009766	-0.002136	0.046844	0.041351	0.000763	-0.005951	0.20493	-0.036621	-0.016022	-0.002289	-0.003052	-0.011597	-0.002899	-0.006409	-0.02182
17.539	0.018005	-0.017548	-0.037079	-0.064697	0.03418	-0.005341	-0.013123	-0.1001	0.034485	0.049591	-0.004883	0.025787	-0.015717	0.019836	-0.02243	-0.07019	-0.037231	-0.002136	0.007172	-0.10178	0.032959	0.002441	-0.005035	0.16373	-0.032501	-0.010681	-0.006256	-0.015717	-0.015106	-0.00885	-0.002899	-0.018158
17.54	0.022888	-0.009613	-0.10742	-0.056915	0.10803	-0.019836	-0.022888	0.00824	-0.012817	-0.010986	-0.007019	0.024567	-0.010223	0.01297	-0.021973	0.050354	-0.023804	0	0.021515	0.047607	0.013275	-0.001221	-0.005341	0.14893	-0.033417	-0.003815	-0.00824	-0.011597	-0.014191	-0.01297	0.001068	-0.025787
17.541	0.017242	-0.014496	-0.021057	0.002747	0.15595	-0.052948	-0.028992	0.25513	-0.029755	-0.001373	-0.002289	-0.052338	-0.012665	0.001526	-0.00473	0.13199	-0.02533	0.002136	-0.006561	0.081482	0.034943	-0.005798	-0.00946	0.11795	-0.031738	-0.017548	-0.003967	-0.001373	-0.015106	-0.008698	-0.00061	-0.021057
